<?xml version="1.0" encoding="UTF-8" standalone="no"?>
<!-- Created with Inkscape (http://www.inkscape.org/) -->

<svg
   width="24.00001"
   height="28.492796"
   viewBox="0 0 6.3500025 7.5387188"
   version="1.1"
   id="svg5"
   inkscape:version="1.1 (c68e22c387, 2021-05-23)"
   sodipodi:docname="roll-cake-fill.svg"
   xmlns:inkscape="http://www.inkscape.org/namespaces/inkscape"
   xmlns:sodipodi="http://sodipodi.sourceforge.net/DTD/sodipodi-0.dtd"
   xmlns="http://www.w3.org/2000/svg"
   xmlns:svg="http://www.w3.org/2000/svg">
  <sodipodi:namedview
     id="namedview7"
     pagecolor="#ffffff"
     bordercolor="#666666"
     borderopacity="1.0"
     inkscape:pageshadow="2"
     inkscape:pageopacity="0.0"
     inkscape:pagecheckerboard="0"
     inkscape:document-units="px"
     showgrid="false"
     inkscape:zoom="10.604714"
     inkscape:cx="44.932849"
     inkscape:cy="19.755366"
     inkscape:window-width="1920"
     inkscape:window-height="991"
     inkscape:window-x="-9"
     inkscape:window-y="-9"
     inkscape:window-maximized="1"
     inkscape:current-layer="layer1"
     fit-margin-top="0"
     fit-margin-left="0"
     fit-margin-right="0"
     fit-margin-bottom="0"
     inkscape:showpageshadow="false"
     showborder="true"
     units="px" />
  <defs
     id="defs2" />
  <g
     inkscape:label="Capa 1"
     inkscape:groupmode="layer"
     id="layer1"
     transform="translate(-28.58858,-92.104575)">
    <g
       style="fill:#000000;stroke-width:31.2232"
       id="g832"
       transform="matrix(0.01261309,0,0,0.0157616,28.022191,92.065101)">
      <path
         d="m 455.02563,2.6023077 c -35.75409,0 -85.80826,-2.29709005 -126.25184,15.3681773 -80.75792,35.274083 -142.74281,95.256095 -190.55653,155.531055 0,0 -33.3972,32.92894 -48.918443,49.99903 -9.055573,9.95921 -22.974404,31.9096 -22.974404,31.9096 0,0 -10.651891,16.89499 -13.844917,25.94507 -4.118065,11.67195 -5.558303,23.89678 -6.649083,35.99358 -2.219357,24.61275 0.249587,74.02997 0.249587,74.02997 0.004,1.18299 0.216,2.313 0.594,3.367 5.096,44.226 42.763,86.05521 88.332,86.05521 h 210.789 c 49.034,0 67.64685,-42.9392 88.926,-88.995 L 520.35446,206.4641 C 566.78783,105.96543 562.17463,2.6023077 455.02563,2.6023077 Z M 345.795,460.801 H 240.4 c -41.674,0 -75.577,-33.904 -75.577,-75.578 0,-41.673 33.903,-75.576 75.577,-75.576 41.674,0 75.577,33.903 75.577,75.577 0,18.079 -14.709,32.788 -32.789,32.788 -18.079,0 -32.788,-14.709 -32.788,-32.788 v -28.526 c 0,-5.522 -4.478,-10 -10,-10 -5.522,0 -10,4.478 -10,10 v 28.526 c 0,29.107 23.681,52.788 52.789,52.788 29.107,0 52.788,-23.681 52.788,-52.788 0,-52.701 -42.876,-95.577 -95.577,-95.577 -52.701,0 -95.577,42.876 -95.577,95.577 0,30.71 14.563,58.079 37.141,75.577 H 135.006 C 97,460.801 66.08,429.881 66.08,391.806 66.08,360.58816 63.489009,323.45375 77.921287,298.08162 107.92613,245.33275 175.49784,217.487 240.4,217.487 c 51.618,0 100.287,22.69 133.528,62.252 3.554,4.229 9.861,4.777 14.089,1.224 4.229,-3.553 4.776,-9.86 1.224,-14.089 -4.77938,-5.68828 25.94608,-14.0538 55.19058,-33.14714 35.39379,-23.10814 78.64863,-45.22891 93.26819,-74.71934 14.44,-29.12822 10.25973,-84.210901 -12.97096,-111.410172 -9.10443,-10.659774 -41.40127,-27.03549 -53.22518,-28.761118 -6.58532,-0.961088 2.9004,13.39272 2.94872,9.95725 0.66986,-47.624534 -100.9757,8.217879 -127.8235,8.217879 C 270.26085,37.011359 97.824,241.775 66.08,306.036 l 79.12965,-97.83703 C 210.4736,127.5057 349.14992,17.397692 445.26992,17.397692 c 96.12,0 146.3359,144.946268 35.57212,182.126928 l -102.44072,34.38682 c -2.842,-3.482 13.86068,45.03956 9.61568,47.05156 -4.6256,2.16549 -45.38241,-47.8672 0.90401,20.5554 3.81121,5.6339 3.9061,8.19392 9.02999,15.5866 11.128,23.426 16.77,48.559 16.77,74.77 0,38.006 -30.92,68.926 -68.926,68.926 z"
         id="path824"
         style="stroke-width:31.2232"
         sodipodi:nodetypes="sssscssscsssssssssssssssssssscsssscccsssssscsssccscss" />
    </g>
  </g>
</svg>
