<svg width="800" height="1200" viewBox="0 0 800 1200" fill="none" xmlns="http://www.w3.org/2000/svg">
  <path d="M615.5 73C555.5 123.5 522 179.5 520 245.5C518 308.5 548.5 356 600.5 396.5C654.5 438.5 687 483 683 543.5C678.5 612 626.5 656.5 542.5 701.5C448 752 388.5 804 380.5 878.5C372.5 952 421.5 1019.5 521.5 1091.5" stroke="#B494C1" stroke-width="2.2" stroke-linecap="round"/>
  <path d="M500 145C452.5 186.5 427 231.5 425.5 284.5C424 336 448 375 489 408.5C531.5 443 557 480.5 554 531.5C550.5 589.5 509 626 442.5 663.5C367.5 706 320 744 313.5 806.5C307.5 867.5 346 924 425 984" stroke="#DFA9C4" stroke-width="1.9" stroke-linecap="round" opacity="0.72"/>
  <path d="M408.5 235C434 248 452.5 264.5 463 284.5C474.5 306.5 477.5 330 468 353.5C458.5 377.5 435.5 398 401.5 413.5" stroke="#DFA9C4" stroke-width="1.3" stroke-linecap="round" opacity="0.68"/>
  <path d="M295 752C330 764.5 357 786 374 815.5C392 846.5 397 879.5 387.5 913.5C377.5 948.5 351.5 978.5 309 1001.5" stroke="#DFA9C4" stroke-width="1.3" stroke-linecap="round" opacity="0.68"/>
</svg>