<svg class="sr-only" aria-hidden="true" focusable="false" xmlns="http://www.w3.org/2000/svg" style="display:none;">
<symbol id="i-phone" viewBox="0 0 24 24"><path d="M6.6 10.8c1.4 2.7 3.9 5.2 6.6 6.6l2.2-2.2c.3-.3.7-.4 1.1-.3 1.2.4 2.5.6 3.8.6.6 0 1 .4 1 1V21c0 .6-.4 1-1 1C10.4 22 2 13.6 2 3c0-.6.4-1 1-1h3.8c.6 0 1 .4 1 1 0 1.3.2 2.6.6 3.8.1.4 0 .8-.3 1.1L6.6 10.8z"/></symbol>
<symbol id="i-email" viewBox="0 0 24 24"><path d="M20 4H4a2 2 0 0 0-2 2v12a2 2 0 0 0 2 2h16a2 2 0 0 0 2-2V6a2 2 0 0 0-2-2zm0 4-8 5L4 8V6l8 5 8-5v2z"/></symbol>
<symbol id="i-location" viewBox="0 0 24 24"><path d="M12 2a7 7 0 0 0-7 7c0 5.2 7 13 7 13s7-7.8 7-13a7 7 0 0 0-7-7zm0 9.5A2.5 2.5 0 1 1 12 6a2.5 2.5 0 0 1 0 5.5z"/></symbol>
<symbol id="i-external" viewBox="0 0 24 24"><path d="M14 3h7v7h-2V6.4l-9.3 9.3-1.4-1.4L17.6 5H14V3z"/><path d="M5 5h7v2H7v10h10v-5h2v7H5V5z"/></symbol>
<symbol id="i-instagram" viewBox="0 0 24 24"><path d="M7 2h10a5 5 0 0 1 5 5v10a5 5 0 0 1-5 5H7a5 5 0 0 1-5-5V7a5 5 0 0 1 5-5zm10 2H7a3 3 0 0 0-3 3v10a3 3 0 0 0 3 3h10a3 3 0 0 0 3-3V7a3 3 0 0 0-3-3z"/><path d="M12 7a5 5 0 1 0 0 10 5 5 0 0 0 0-10zm0 2a3 3 0 1 1 0 6 3 3 0 0 1 0-6z"/><path d="M17.5 6.5a1 1 0 1 0 0 2 1 1 0 0 0 0-2z"/></symbol>
<symbol id="i-facebook" viewBox="0 0 24 24"><path d="M14 8h2V6h-2c-2.2 0-4 1.8-4 4v2H8v2h2v8h2v-8h2l1-2h-3v-2c0-1.1.9-2 2-2z"/></symbol>
<symbol id="i-tiktok" viewBox="0 0 24 24"><path d="M16 3c.6 2.7 2.2 4.4 4.9 4.9V10c-1.7-.1-3.2-.7-4.4-1.7V15c0 3.3-2.7 6-6 6s-6-2.7-6-6 2.7-6 6-6c.3 0 .7 0 1 .1V12c-.3-.1-.6-.2-1-.2-1.7 0-3 1.3-3 3s1.3 3 3 3 3-1.3 3-3V3h2z"/></symbol>
<symbol id="i-whatsapp" viewBox="0 0 24 24"><path d="M21 11.5a8.38 8.38 0 0 1-.9 3.8 8.5 8.5 0 0 1-7.6 4.7 8.38 8.38 0 0 1-3.8-.9L3 21l1.9-5.7a8.38 8.38 0 0 1-.9-3.8 8.5 8.5 0 0 1 4.7-7.6 8.38 8.38 0 0 1 3.8-.9h.5a8.48 8.48 0 0 1 8 8v.5z" fill="#e6e3e3" stroke="#e6e3e3" stroke-width="0" stroke-linejoin="round"/><path d="M10.35 9.15c.2-.2.55-.2.75 0l1.1 1.1c.2.2.2.55 0 .75l-.7.7c-.12.12-.16.29-.1.45.45 1.11 1.36 2.02 2.47 2.47.16.06.33.02.45-.1l.7-.7c.2-.2.55-.2.75 0l1.1 1.1c.2.2.2.55 0 .75l-.62.62c-.35.35-.86.5-1.35.4-1.38-.27-2.77-1.06-3.86-2.15-1.09-1.09-1.88-2.48-2.15-3.86-.1-.49.05-1 .4-1.35l.62-.62z" fill="#111" stroke="#111" stroke-width="1.00" stroke-linecap="round" stroke-linejoin="round"/></symbol>
<symbol id="i-pinterest" viewBox="0 0 496 512"><path d="M248 8C111 8 0 119 0 256c0 101.4 60.6 188.5 147.2 227.3-2-19.3-3.8-49 0.8-70.1 4.2-18.1 27-115.1 27-115.1s-6.9-13.8-6.9-34.1c0-31.9 18.5-55.7 41.6-55.7 19.6 0 29 14.7 29 32.4 0 19.7-12.6 49.1-19.1 76.4-5.4 22.9 11.5 41.6 34.1 41.6 40.9 0 68.4-52.5 68.4-114.7 0-47.3-31.9-82.7-89.9-82.7-65.5 0-106.3 48.9-106.3 103.5 0 18.8 5.5 32.1 14.1 42.4 4 4.8 4.5 6.7 3.1 12.2-1 4-3.4 13.5-4.4 17.3-1.4 5.6-5.8 7.6-10.7 5.5-29.9-12.2-43.9-45.1-43.9-82.1 0-61 51.6-134 153.2-134 81.6 0 135.3 59.1 135.3 122.6 0 83.9-46.6 146.6-115.3 146.6-23.2 0-45.1-12.5-52.6-26.7 0 0-12.5 49.6-15.2 59.4-5.5 20.4-16.3 40.8-25.4 56.3 22.7 6.7 46.8 10.3 71.7 10.3 137 0 248-111 248-248S385 8 248 8z"/></symbol>
<!-- seccion How To Order -->
<symbol id="i-step-size" viewBox="0 0 576 512"><path fill="currentColor" d="M304 240l0-223.4c0-9 7-16.6 16-16.6C443.7 0 544 100.3 544 224c0 9-7.6 16-16.6 16L304 240zM32 272C32 150.7 122.1 50.3 239 34.3c9.2-1.3 17 6.1 17 15.4L256 288 412.5 444.5c6.7 6.7 6.2 17.7-1.5 23.1C371.8 495.6 323.8 512 272 512C139.5 512 32 404.6 32 272zm526.4 16c9.3 0 16.6 7.8 15.4 17c-7.7 55.9-34.6 105.6-73.9 142.3c-6 5.6-15.4 5.2-21.2-.7L320 288l238.4 0z"/>
</symbol>
<symbol id="i-step-flavor" viewBox="0 0 448 512"><path fill="currentColor" d="M86.4 5.5L61.8 47.6C58 54.1 56 61.6 56 69.2L56 72c0 22.1 17.9 40 40 40s40-17.9 40-40l0-2.8c0-7.6-2-15-5.8-21.6L105.6 5.5C103.6 2.1 100 0 96 0s-7.6 2.1-9.6 5.5zm128 0L189.8 47.6c-3.8 6.5-5.8 14-5.8 21.6l0 2.8c0 22.1 17.9 40 40 40s40-17.9 40-40l0-2.8c0-7.6-2-15-5.8-21.6L233.6 5.5C231.6 2.1 228 0 224 0s-7.6 2.1-9.6 5.5zM317.8 47.6c-3.8 6.5-5.8 14-5.8 21.6l0 2.8c0 22.1 17.9 40 40 40s40-17.9 40-40l0-2.8c0-7.6-2-15-5.8-21.6L361.6 5.5C359.6 2.1 356 0 352 0s-7.6 2.1-9.6 5.5L317.8 47.6zM128 176c0-17.7-14.3-32-32-32s-32 14.3-32 32l0 48c-35.3 0-64 28.7-64 64l0 71c8.3 5.2 18.1 9 28.8 9c13.5 0 27.2-6.1 38.4-13.4c5.4-3.5 9.9-7.1 13-9.7c1.5-1.3 2.7-2.4 3.5-3.1c.4-.4 .7-.6 .8-.8l.1-.1s0 0 0 0s0 0 0 0s0 0 0 0s0 0 0 0c3.1-3.2 7.4-4.9 11.9-4.8s8.6 2.1 11.6 5.4c0 0 0 0 0 0s0 0 0 0l.1 .1c.1 .1 .4 .4 .7 .7c.7 .7 1.7 1.7 3.1 3c2.8 2.6 6.8 6.1 11.8 9.5c10.2 7.1 23 13.1 36.3 13.1s26.1-6 36.3-13.1c5-3.5 9-6.9 11.8-9.5c1.4-1.3 2.4-2.3 3.1-3c.3-.3 .6-.6 .7-.7l.1-.1c3-3.5 7.4-5.4 12-5.4s9 2 12 5.4l.1 .1c.1 .1 .4 .4 .7 .7c.7 .7 1.7 1.7 3.1 3c2.8 2.6 6.8 6.1 11.8 9.5c10.2 7.1 23 13.1 36.3 13.1s26.1-6 36.3-13.1c5-3.5 9-6.9 11.8-9.5c1.4-1.3 2.4-2.3 3.1-3c.3-.3 .6-.6 .7-.7l.1-.1c2.9-3.4 7.1-5.3 11.6-5.4s8.7 1.6 11.9 4.8c0 0 0 0 0 0s0 0 0 0s0 0 0 0l.1 .1c.2 .2 .4 .4 .8 .8c.8 .7 1.9 1.8 3.5 3.1c3.1 2.6 7.5 6.2 13 9.7c11.2 7.3 24.9 13.4 38.4 13.4c10.7 0 20.5-3.9 28.8-9l0-71c0-35.3-28.7-64-64-64l0-48c0-17.7-14.3-32-32-32s-32 14.3-32 32l0 48-64 0 0-48c0-17.7-14.3-32-32-32s-32 14.3-32 32l0 48-64 0 0-48zM448 394.6c-8.5 3.3-18.2 5.4-28.8 5.4c-22.5 0-42.4-9.9-55.8-18.6c-4.1-2.7-7.8-5.4-10.9-7.8c-2.8 2.4-6.1 5-9.8 7.5C329.8 390 310.6 400 288 400s-41.8-10-54.6-18.9c-3.5-2.4-6.7-4.9-9.4-7.2c-2.7 2.3-5.9 4.7-9.4 7.2C201.8 390 182.6 400 160 400s-41.8-10-54.6-18.9c-3.7-2.6-7-5.2-9.8-7.5c-3.1 2.4-6.8 5.1-10.9 7.8C71.2 390.1 51.3 400 28.8 400c-10.6 0-20.3-2.2-28.8-5.4L0 480c0 17.7 14.3 32 32 32l384 0c17.7 0 32-14.3 32-32l0-85.4z"/>
</symbol>
<symbol id="i-step-design" viewBox="0 0 512 512"><path fill="currentColor" d="M512 256c0 .9 0 1.8 0 2.7c-.4 36.5-33.6 61.3-70.1 61.3L344 320c-26.5 0-48 21.5-48 48c0 3.4 .4 6.7 1 9.9c2.1 10.2 6.5 20 10.8 29.9c6.1 13.8 12.1 27.5 12.1 42c0 31.8-21.6 60.7-53.4 62c-3.5 .1-7 .2-10.6 .2C114.6 512 0 397.4 0 256S114.6 0 256 0S512 114.6 512 256zM128 288a32 32 0 1 0 -64 0 32 32 0 1 0 64 0zm0-96a32 32 0 1 0 0-64 32 32 0 1 0 0 64zM288 96a32 32 0 1 0 -64 0 32 32 0 1 0 64 0zm96 96a32 32 0 1 0 0-64 32 32 0 1 0 0 64z"/>
</symbol>
<symbol id="i-step-date" viewBox="0 0 448 512"><path fill="currentColor" d="M152 24c0-13.3-10.7-24-24-24s-24 10.7-24 24l0 40L64 64C28.7 64 0 92.7 0 128l0 16 0 48L0 448c0 35.3 28.7 64 64 64l320 0c35.3 0 64-28.7 64-64l0-256 0-48 0-16c0-35.3-28.7-64-64-64l-40 0 0-40c0-13.3-10.7-24-24-24s-24 10.7-24 24l0 40L152 64l0-40zM48 192l80 0 0 56-80 0 0-56zm0 104l80 0 0 64-80 0 0-64zm128 0l96 0 0 64-96 0 0-64zm144 0l80 0 0 64-80 0 0-64zm80-48l-80 0 0-56 80 0 0 56zm0 160l0 40c0 8.8-7.2 16-16 16l-64 0 0-56 80 0zm-128 0l0 56-96 0 0-56 96 0zm-144 0l0 56-64 0c-8.8 0-16-7.2-16-16l0-40 80 0zM272 248l-96 0 0-56 96 0 0 56z"/>
</symbol>
<symbol id="i-step-confirm" viewBox="0 0 384 512"><path fill="currentColor" d="M64 0C28.7 0 0 28.7 0 64L0 448c0 35.3 28.7 64 64 64l256 0c35.3 0 64-28.7 64-64l0-288-128 0c-17.7 0-32-14.3-32-32L224 0 64 0zM256 0l0 128 128 0L256 0zM64 80c0-8.8 7.2-16 16-16l64 0c8.8 0 16 7.2 16 16s-7.2 16-16 16L80 96c-8.8 0-16-7.2-16-16zm0 64c0-8.8 7.2-16 16-16l64 0c8.8 0 16 7.2 16 16s-7.2 16-16 16l-64 0c-8.8 0-16-7.2-16-16zm128 72c8.8 0 16 7.2 16 16l0 17.3c8.5 1.2 16.7 3.1 24.1 5.1c8.5 2.3 13.6 11 11.3 19.6s-11 13.6-19.6 11.3c-11.1-3-22-5.2-32.1-5.3c-8.4-.1-17.4 1.8-23.6 5.5c-5.7 3.4-8.1 7.3-8.1 12.8c0 3.7 1.3 6.5 7.3 10.1c6.9 4.1 16.6 7.1 29.2 10.9l.5 .1s0 0 0 0s0 0 0 0c11.3 3.4 25.3 7.6 36.3 14.6c12.1 7.6 22.4 19.7 22.7 38.2c.3 19.3-9.6 33.3-22.9 41.6c-7.7 4.8-16.4 7.6-25.1 9.1l0 17.1c0 8.8-7.2 16-16 16s-16-7.2-16-16l0-17.8c-11.2-2.1-21.7-5.7-30.9-8.9c0 0 0 0 0 0c-2.1-.7-4.2-1.4-6.2-2.1c-8.4-2.8-12.9-11.9-10.1-20.2s11.9-12.9 20.2-10.1c2.5 .8 4.8 1.6 7.1 2.4c0 0 0 0 0 0s0 0 0 0s0 0 0 0c13.6 4.6 24.6 8.4 36.3 8.7c9.1 .3 17.9-1.7 23.7-5.3c5.1-3.2 7.9-7.3 7.8-14c-.1-4.6-1.8-7.8-7.7-11.6c-6.8-4.3-16.5-7.4-29-11.2l-1.6-.5s0 0 0 0c-11-3.3-24.3-7.3-34.8-13.7c-12-7.2-22.6-18.9-22.7-37.3c-.1-19.4 10.8-32.8 23.8-40.5c7.5-4.4 15.8-7.2 24.1-8.7l0-17.3c0-8.8 7.2-16 16-16z"/>
</symbol>
<!-- 
isotipo dibujo
logotipo texto del logo
isologotipo completo -->
<!--isologotipo completo -->
<symbol id="isologotipo-cake-atelier" viewBox="0 0 280.09 209.42" fill="currentColor" >
  <path d="M65.81,200.85c0-2.92,2.16-4.98,5.17-4.98,1.75,0,3.21.72,3.98,2.08l-1.35.87c-.63-.96-1.59-1.4-2.66-1.4-1.92,0-3.36,1.35-3.36,3.43s1.44,3.45,3.36,3.45c1.07,0,2.03-.44,2.66-1.4l1.35.85c-.77,1.37-2.23,2.1-3.98,2.1-3.01,0-5.17-2.08-5.17-5Z"/>
  <path d="M79.79,200.85c0-2.92,2.16-4.98,5.09-4.98s5.07,2.07,5.07,4.98-2.14,5-5.07,5-5.09-2.08-5.09-5ZM88.17,200.85c0-2.08-1.4-3.43-3.28-3.43s-3.3,1.35-3.3,3.43,1.42,3.45,3.3,3.45,3.28-1.37,3.28-3.45Z"/>
  <path d="M105.99,200.85c0,3.01-2.08,5-4.94,5-1.38,0-2.6-.53-3.41-1.59v5.05h-1.77v-13.36h1.7v1.55c.79-1.09,2.05-1.64,3.49-1.64,2.86,0,4.94,1.99,4.94,4.98ZM104.2,200.85c0-2.07-1.42-3.43-3.3-3.43s-3.28,1.37-3.28,3.43,1.42,3.45,3.28,3.45,3.3-1.37,3.3-3.45Z"/>
  <path d="M120.69,201.44h-7.93c.22,1.72,1.6,2.86,3.54,2.86,1.14,0,2.1-.39,2.82-1.18l.98,1.14c-.89,1.03-2.23,1.59-3.86,1.59-3.15,0-5.26-2.08-5.26-5s2.08-4.98,4.91-4.98,4.83,2.03,4.83,5.04c0,.15-.02.37-.04.53ZM112.75,200.16h6.27c-.18-1.64-1.42-2.8-3.14-2.8s-2.95,1.14-3.14,2.8Z"/>
  <path d="M135.91,200.11v5.63h-1.77v-5.42c0-1.92-.96-2.86-2.64-2.86-1.88,0-3.1,1.12-3.1,3.25v5.04h-1.77v-9.78h1.7v1.48c.72-1,1.97-1.57,3.52-1.57,2.38,0,4.06,1.36,4.06,4.24Z"/>
  <path d="M151.92,200.11v5.63h-1.77v-5.42c0-1.92-.96-2.86-2.64-2.86-1.88,0-3.1,1.12-3.1,3.25v5.04h-1.77v-13.69h1.77v5.29c.74-.94,1.96-1.48,3.45-1.48,2.38,0,4.06,1.36,4.06,4.24Z"/>
  <path d="M166.4,199.83v5.9h-1.68v-1.29c-.59.88-1.68,1.4-3.21,1.4-2.21,0-3.62-1.18-3.62-2.88,0-1.57,1.01-2.86,3.93-2.86h2.8v-.35c0-1.49-.87-2.36-2.62-2.36-1.16,0-2.34.41-3.1,1.05l-.74-1.33c1.01-.81,2.47-1.25,4.04-1.25,2.67,0,4.19,1.29,4.19,3.97ZM164.63,202.75v-1.37h-2.73c-1.75,0-2.25.68-2.25,1.51,0,.98.81,1.59,2.16,1.59s2.38-.61,2.82-1.73Z"/>
  <path d="M182.48,195.96v8.45c0,3.45-1.75,5.02-5.07,5.02-1.79,0-3.6-.5-4.67-1.46l.85-1.37c.9.77,2.33,1.27,3.76,1.27,2.31,0,3.36-1.07,3.36-3.28v-.78c-.85,1.01-2.12,1.51-3.52,1.51-2.82,0-4.96-1.92-4.96-4.74s2.14-4.72,4.96-4.72c1.46,0,2.79.53,3.62,1.6v-1.51h1.68ZM180.75,200.59c0-1.9-1.4-3.17-3.36-3.17s-3.38,1.27-3.38,3.17,1.4,3.19,3.38,3.19,3.36-1.31,3.36-3.19Z"/>
  <path d="M198.11,201.44h-7.93c.22,1.72,1.6,2.86,3.54,2.86,1.14,0,2.1-.39,2.82-1.18l.98,1.14c-.88,1.03-2.23,1.59-3.86,1.59-3.15,0-5.26-2.08-5.26-5s2.08-4.98,4.91-4.98,4.83,2.03,4.83,5.04c0,.15-.02.37-.04.53ZM190.17,200.16h6.27c-.18-1.64-1.42-2.8-3.14-2.8s-2.95,1.14-3.14,2.8Z"/>
  <path d="M213.32,200.11v5.63h-1.77v-5.42c0-1.92-.96-2.86-2.64-2.86-1.88,0-3.1,1.12-3.1,3.25v5.04h-1.77v-9.78h1.7v1.48c.72-1,1.97-1.57,3.52-1.57,2.38,0,4.06,1.36,4.06,4.24Z"/>
  <g>
    <path d="M199.74,76.61h-126.19V31.54h34.34v10.51h57.48v-10.51h34.37v45.08ZM76.58,73.58h120.13v-39.01h-28.31v10.51h-63.54v-10.51h-28.28v39.01Z"/>
    <path d="M223.74,108.15H49.56v-45.08h27.02v10.51h120.13v-10.51h27.03v45.08ZM52.59,105.12h168.12v-39.01h-20.97v10.51h-126.19v-10.51h-20.96v39.01Z"/>
    <path d="M168.39,45.07h-63.54V0h63.54v45.07ZM107.89,42.04h57.48V3.03h-57.48v39.01Z"/>
  </g>
  <path d="M0,162.19c0-7.49,5.72-12.96,13.43-12.96,3.91,0,7.31,1.34,9.63,3.95l-2.35,2.28c-1.95-2.06-4.34-3-7.13-3-5.72,0-9.95,4.13-9.95,9.74s4.23,9.74,9.95,9.74c2.79,0,5.18-.98,7.13-3.04l2.35,2.28c-2.32,2.61-5.72,3.98-9.66,3.98-7.67,0-13.39-5.47-13.39-12.96Z"/>
  <path d="M45.78,168.52h-13.46l-2.79,6.33h-3.73l11.47-25.34h3.58l11.51,25.34h-3.8l-2.79-6.33ZM44.52,165.62l-5.46-12.41-5.47,12.41h10.93Z"/>
  <path d="M65.8,163.6l-4.63,4.71v6.55h-3.62v-25.34h3.62v14.15l13.75-14.15h4.13l-10.82,11.4,11.51,13.93h-4.23l-9.7-11.26Z"/>
  <path d="M103.36,171.7v3.15h-18.39v-25.34h17.88v3.15h-14.26v7.78h12.7v3.08h-12.7v8.18h14.77Z"/>
  <path d="M137.93,168.52h-13.46l-2.79,6.33h-3.73l11.47-25.34h3.58l11.51,25.34h-3.8l-2.79-6.33ZM136.66,165.62l-5.46-12.41-5.47,12.41h10.93Z"/>
  <path d="M154.72,152.67h-8.69v-3.15h20.96v3.15h-8.69v22.19h-3.58v-22.19Z"/>
  <path d="M190.73,171.7v3.15h-18.39v-25.34h17.88v3.15h-14.26v7.78h12.7v3.08h-12.7v8.18h14.77Z"/>
  <path d="M198,149.52h3.62v22.19h13.72v3.15h-17.34v-25.34Z"/>
  <path d="M220.91,149.52h3.62v25.34h-3.62v-25.34Z"/>
  <path d="M251.93,171.7v3.15h-18.39v-25.34h17.88v3.15h-14.26v7.78h12.7v3.08h-12.7v8.18h14.77Z"/>
  <path d="M276.14,174.85l-5.47-7.78c-.51.04-1.05.07-1.59.07h-6.26v7.71h-3.62v-25.34h9.88c6.59,0,10.57,3.33,10.57,8.83,0,3.91-2.03,6.73-5.57,8l6.01,8.51h-3.95ZM276.03,158.35c0-3.62-2.43-5.68-7.06-5.68h-6.15v11.4h6.15c4.63,0,7.06-2.1,7.06-5.72Z"/>
</symbol>

<!-- texto del logo -->
<symbol id="logotipo-cake-atelier" viewBox="0 0 280.09 60.08" fill="currentColor">
  <path d="M65.81,51.56c0-2.92,2.16-4.98,5.17-4.98,1.75,0,3.21.72,3.98,2.08l-1.35.87c-.63-.96-1.59-1.4-2.66-1.4-1.92,0-3.36,1.35-3.36,3.43s1.44,3.45,3.36,3.45c1.07,0,2.03-.44,2.66-1.4l1.35.85c-.77,1.37-2.23,2.1-3.98,2.1-3.01,0-5.17-2.08-5.17-5h0Z"/>
  <path d="M79.79,51.56c0-2.92,2.16-4.98,5.09-4.98s5.07,2.07,5.07,4.98-2.14,5-5.07,5-5.09-2.08-5.09-5ZM88.17,51.56c0-2.08-1.4-3.43-3.28-3.43s-3.3,1.35-3.3,3.43,1.42,3.45,3.3,3.45,3.28-1.37,3.28-3.45Z"/>
  <path d="M105.99,51.56c0,3.01-2.08,5-4.94,5-1.38,0-2.6-.53-3.41-1.59v5.05h-1.77v-13.36h1.7v1.55c.79-1.09,2.05-1.64,3.49-1.64,2.86,0,4.94,1.99,4.94,4.98h0ZM104.2,51.56c0-2.07-1.42-3.43-3.3-3.43s-3.28,1.37-3.28,3.43,1.42,3.45,3.28,3.45,3.3-1.37,3.3-3.45Z"/>
  <path d="M120.69,52.15h-7.93c.22,1.72,1.6,2.86,3.54,2.86,1.14,0,2.1-.39,2.82-1.18l.98,1.14c-.89,1.03-2.23,1.59-3.86,1.59-3.15,0-5.26-2.08-5.26-5s2.08-4.98,4.91-4.98,4.83,2.03,4.83,5.04c0,.15-.02.37-.04.53h.01ZM112.75,50.87h6.27c-.18-1.64-1.42-2.8-3.14-2.8s-2.95,1.14-3.14,2.8h.01Z"/>
  <path d="M135.91,50.82v5.63h-1.77v-5.42c0-1.92-.96-2.86-2.64-2.86-1.88,0-3.1,1.12-3.1,3.25v5.04h-1.77v-9.78h1.7v1.48c.72-1,1.97-1.57,3.52-1.57,2.38,0,4.06,1.36,4.06,4.24h0Z"/>
  <path d="M151.92,50.82v5.63h-1.77v-5.42c0-1.92-.96-2.86-2.64-2.86-1.88,0-3.1,1.12-3.1,3.25v5.04h-1.77v-13.69h1.77v5.29c.74-.94,1.96-1.48,3.45-1.48,2.38,0,4.06,1.36,4.06,4.24h0Z"/>
  <path d="M166.4,50.54v5.9h-1.68v-1.29c-.59.88-1.68,1.4-3.21,1.4-2.21,0-3.62-1.18-3.62-2.88,0-1.57,1.01-2.86,3.93-2.86h2.8v-.35c0-1.49-.87-2.36-2.62-2.36-1.16,0-2.34.41-3.1,1.05l-.74-1.33c1.01-.81,2.47-1.25,4.04-1.25,2.67,0,4.19,1.29,4.19,3.97h.01ZM164.63,53.46v-1.37h-2.73c-1.75,0-2.25.68-2.25,1.51,0,.98.81,1.59,2.16,1.59s2.38-.61,2.82-1.73h0Z"/>
  <path d="M182.48,46.67v8.45c0,3.45-1.75,5.02-5.07,5.02-1.79,0-3.6-.5-4.67-1.46l.85-1.37c.9.77,2.33,1.27,3.76,1.27,2.31,0,3.36-1.07,3.36-3.28v-.78c-.85,1.01-2.12,1.51-3.52,1.51-2.82,0-4.96-1.92-4.96-4.74s2.14-4.72,4.96-4.72c1.46,0,2.79.53,3.62,1.6v-1.51h1.68,0ZM180.75,51.3c0-1.9-1.4-3.17-3.36-3.17s-3.38,1.27-3.38,3.17,1.4,3.19,3.38,3.19,3.36-1.31,3.36-3.19Z"/>
  <path d="M198.11,52.15h-7.93c.22,1.72,1.6,2.86,3.54,2.86,1.14,0,2.1-.39,2.82-1.18l.98,1.14c-.88,1.03-2.23,1.59-3.86,1.59-3.15,0-5.26-2.08-5.26-5s2.08-4.98,4.91-4.98,4.83,2.03,4.83,5.04c0,.15-.02.37-.04.53h0ZM190.17,50.87h6.27c-.18-1.64-1.42-2.8-3.14-2.8s-2.95,1.14-3.14,2.8h0Z"/>
  <path d="M213.32,50.82v5.63h-1.77v-5.42c0-1.92-.96-2.86-2.64-2.86-1.88,0-3.1,1.12-3.1,3.25v5.04h-1.77v-9.78h1.7v1.48c.72-1,1.97-1.57,3.52-1.57,2.38,0,4.06,1.36,4.06,4.24h0Z"/>
  <path d="M0,12.9C0,5.41,5.72-.06,13.43-.06c3.91,0,7.31,1.34,9.63,3.95l-2.35,2.28c-1.95-2.06-4.34-3-7.13-3C7.86,3.17,3.63,7.3,3.63,12.91s4.23,9.74,9.95,9.74c2.79,0,5.18-.98,7.13-3.04l2.35,2.28c-2.32,2.61-5.72,3.98-9.66,3.98C5.73,25.87.01,20.4.01,12.91h-.01Z"/>
  <path d="M45.78,19.23h-13.46l-2.79,6.33h-3.73L37.27.22h3.58l11.51,25.34h-3.8l-2.79-6.33h0ZM44.52,16.33l-5.46-12.41-5.47,12.41h10.93Z"/>
  <path d="M65.8,14.31l-4.63,4.71v6.55h-3.62V.23h3.62v14.15L74.92.23h4.13l-10.82,11.4,11.51,13.93h-4.23l-9.7-11.26h0Z"/>
  <path d="M103.36,22.41v3.15h-18.39V.22h17.88v3.15h-14.26v7.78h12.7v3.08h-12.7v8.18h14.77Z"/>
  <path d="M137.93,19.23h-13.46l-2.79,6.33h-3.73L129.42.22h3.58l11.51,25.34h-3.8l-2.79-6.33h.01ZM136.66,16.33l-5.46-12.41-5.47,12.41h10.93Z"/>
  <path d="M154.72,3.38h-8.69V.23h20.96v3.15h-8.69v22.19h-3.58V3.38h0Z"/>
  <path d="M190.73,22.41v3.15h-18.39V.22h17.88v3.15h-14.26v7.78h12.7v3.08h-12.7v8.18h14.77,0Z"/>
  <path d="M198,.23h3.62v22.19h13.72v3.15h-17.34V.23Z"/>
  <path d="M220.91.23h3.62v25.34h-3.62V.23Z"/>
  <path d="M251.93,22.41v3.15h-18.39V.22h17.88v3.15h-14.26v7.78h12.7v3.08h-12.7v8.18h14.77,0Z"/>
  <path d="M276.14,25.56l-5.47-7.78c-.51.04-1.05.07-1.59.07h-6.26v7.71h-3.62V.22h9.88c6.59,0,10.57,3.33,10.57,8.83,0,3.91-2.03,6.73-5.57,8l6.01,8.51h-3.95ZM276.03,9.06c0-3.62-2.43-5.68-7.06-5.68h-6.15v11.4h6.15c4.63,0,7.06-2.1,7.06-5.72Z"/>
</symbol>
<!-- solo imagen torta -->
<symbol id="isotipo-cake-atelier" viewBox="0 0 174.18 108.26" fill="currentColor">
  <path d="M150.18,76.61H23.99V31.54h34.34v10.51h57.48v-10.51h34.37v45.08h0ZM27.02,73.58h120.13v-39.01h-28.31v10.51h-63.54v-10.51h-28.28s0,39.01,0,39.01Z"/>
  <path d="M174.18,108.15H0v-45.08h27.02v10.51h120.13v-10.51h27.03v45.08h0ZM3.03,105.12h168.12v-39.01h-20.97v10.51H23.99v-10.51H3.03v39.01h0Z"/>
  <path d="M118.83,45.07h-63.54V0h63.54v45.07ZM58.33,42.04h57.48V3.03h-57.48v39.01Z"/>
</symbol>
</svg>
